<svg width="214" height="197" viewBox="0 0 214 197" fill="none" xmlns="http://www.w3.org/2000/svg">
<path d="M35.0876 173.46C33.6816 173.524 32.2753 173.537 30.8685 173.498C22.6346 173.268 15.1982 169.954 9.56713 163.949C3.19021 157.149 -0.341096 148.771 0.0260426 139.404C0.656791 123.312 13.9014 112.865 19.1853 98.4965C21.9764 90.9076 22.0551 82.8058 22.7432 74.843C24.6009 53.3477 31.403 33.4839 47.804 18.6826C63.8251 4.22372 85.0831 -1.00781 106.281 0.157018C120.126 0.917881 134.641 4.91957 144.166 15.5454C146.085 15.2248 148.012 14.9049 149.958 14.8009C159.304 14.3013 167.863 18.342 174.587 24.6241C191.261 40.2026 192.2 59.8784 192.975 81.0969C193.23 88.0404 193.324 94.7068 195.855 101.278C201.185 115.114 213.429 124.412 213.791 140.205C213.986 148.73 210.945 157.779 204.889 163.939C198.16 170.783 189.459 172.954 180.147 172.886C174.908 181.053 167.874 185.368 159.072 189.033C151.667 181.997 143.409 179.47 133.531 177.595L127.017 176.704C126.824 173.794 126.557 170.89 126.217 167.993L126.251 165.621C114.758 166.728 104.665 166.317 93.3803 163.804L93.4358 166.488L93.385 177.779L87.4064 178.545C79.4013 180.502 68.4585 184.118 62.4254 189.968C51.0007 186.804 42.3967 183.087 35.0876 173.46Z" fill="#A64528"/>
<path d="M60.2277 97.7562C60.8101 95.0318 61.433 92.376 62.5885 89.8225C65.4256 83.5536 70.4921 78.4702 77.0448 76.1319C83.5017 73.8274 91.1479 74.3084 97.2891 77.3485C105.67 81.4971 108.903 88.5374 111.654 96.9013L121.686 96.8713C123.763 90.576 126.42 84.8012 131.666 80.4787C136.895 76.1695 144.009 74.3836 150.687 75.2638C158.975 76.3574 164.19 81.0161 169.076 87.3405L172.02 92.4953C171.903 94.718 171.792 96.7566 172.167 98.969C172.173 97.1296 171.93 96.2193 172.951 94.6551C175.856 93.1585 179.938 92.7189 183.06 93.8049C186.263 94.9181 188.526 97.4913 189.882 100.528C192.257 105.85 192.086 112.361 189.929 117.716C189.791 118.062 189.644 118.405 189.489 118.745C189.334 119.083 189.17 119.418 188.998 119.749C188.825 120.08 188.645 120.406 188.455 120.728C188.267 121.05 188.07 121.367 187.865 121.678C187.661 121.99 187.448 122.297 187.229 122.597C187.008 122.898 186.78 123.194 186.546 123.484C186.31 123.773 186.068 124.057 185.818 124.334C185.569 124.612 185.313 124.883 185.05 125.147C184.787 125.411 184.517 125.669 184.241 125.92C183.965 126.171 183.683 126.415 183.395 126.651C183.107 126.888 182.812 127.117 182.512 127.339C182.212 127.561 181.907 127.775 181.597 127.981C181.286 128.188 180.97 128.386 180.65 128.577C180.329 128.767 180.004 128.95 179.673 129.124C179.343 129.298 179.009 129.463 178.671 129.621C178.333 129.778 177.991 129.927 177.645 130.067C175.113 131.094 172.227 131.552 169.51 131.759C161.618 147.196 151.807 157.875 134.94 163.39C132.087 164.307 129.191 165.051 126.251 165.622C114.757 166.729 104.665 166.317 93.38 163.804C90.6387 163.126 87.9421 162.301 85.2904 161.331C71.6599 156.279 62.6543 145.711 56.7571 132.813C52.4207 133.536 48.1003 134 43.8399 132.56C38.2047 130.654 33.609 126.03 31.2068 120.644C28.9833 115.658 28.6557 109.558 30.6539 104.441C31.9172 101.206 34.2665 98.2729 37.5708 96.983C40.7857 95.7289 43.881 96.2409 46.9781 97.5129C49.0852 98.9005 51.1186 100.319 53.4964 101.212C53.7072 99.7817 53.7958 98.3105 53.9331 96.8703L54.2623 96.8525C56.3068 97.4114 58.1073 97.7055 60.2277 97.7562Z" fill="#FCB57C"/>
<path d="M60.2274 97.7562C60.8098 95.0318 61.4327 92.376 62.5882 89.8225C65.4254 83.5536 70.4918 78.4702 77.0445 76.1319C83.5014 73.8274 91.1476 74.3084 97.2888 77.3485C105.67 81.4971 108.902 88.5374 111.654 96.9013L121.685 96.8713C123.763 90.576 126.419 84.8012 131.666 80.4787C136.895 76.1695 144.009 74.3836 150.686 75.2638C158.975 76.3574 164.19 81.0161 169.076 87.3405L172.019 92.4953C171.903 94.718 171.792 96.7566 172.167 98.969C171.833 106.966 169.701 114.132 163.567 119.733C163.259 120.013 162.944 120.285 162.623 120.549C162.302 120.813 161.974 121.069 161.639 121.317C161.305 121.564 160.965 121.803 160.618 122.034C160.272 122.265 159.92 122.486 159.562 122.699C159.205 122.912 158.842 123.115 158.474 123.31C158.107 123.505 157.734 123.69 157.357 123.866C156.98 124.042 156.599 124.209 156.213 124.365C155.828 124.522 155.439 124.669 155.046 124.806C154.654 124.944 154.258 125.071 153.858 125.188C153.459 125.305 153.057 125.412 152.653 125.51C152.248 125.607 151.841 125.694 151.432 125.771C151.023 125.847 150.613 125.914 150.201 125.97C149.788 126.026 149.374 126.071 148.96 126.107C148.545 126.142 148.13 126.167 147.714 126.181C147.298 126.196 146.882 126.2 146.466 126.193C146.05 126.187 145.635 126.17 145.22 126.143C138.721 125.771 132.559 123.064 128.186 118.175C123.701 113.159 122.383 107.146 121.356 100.711C118.114 100.699 114.854 100.622 111.615 100.773C110.487 109.335 107.948 116.086 100.91 121.533C95.4625 125.75 88.596 127.901 81.7051 127.061C75.1581 126.263 69.5458 122.732 65.6302 117.481C62.1664 112.836 61.0071 107.925 60.0235 102.353C59.8835 101.563 59.953 101.886 59.6938 101.038C57.648 101.512 55.5781 101.299 53.4961 101.212C53.7069 99.7817 53.7955 98.3105 53.9328 96.8703L54.262 96.8525C56.3066 97.4114 58.107 97.7055 60.2274 97.7562Z" fill="#262437"/>
<path d="M80.8874 78.2902C81.2569 78.2138 81.6283 78.1468 82.0016 78.0891C82.3749 78.0309 82.7491 77.982 83.1242 77.9426C83.4994 77.9031 83.8755 77.8731 84.2525 77.8524C84.6296 77.8311 85.0069 77.8192 85.3846 77.8167C85.7616 77.8148 86.1389 77.822 86.5166 77.8383C86.8936 77.854 87.27 77.8793 87.6458 77.9144C88.0216 77.9495 88.3964 77.9936 88.7703 78.0469C89.1442 78.1001 89.5163 78.1624 89.8864 78.2338C90.2572 78.3058 90.6261 78.3866 90.9931 78.4762C91.3595 78.5664 91.7237 78.6653 92.0857 78.7731C92.4471 78.8808 92.8059 78.9973 93.1623 79.1225C93.518 79.2484 93.8706 79.3828 94.2201 79.5256C94.5696 79.6684 94.9153 79.8196 95.2573 79.9793C95.5992 80.139 95.9371 80.3072 96.2709 80.4838C96.6048 80.6604 96.9339 80.8452 97.2583 81.0381C97.5827 81.231 97.9021 81.4317 98.2165 81.6403C98.5316 81.8488 98.841 82.0652 99.1447 82.2894C99.4485 82.513 99.7469 82.7441 100.04 82.9827C100.333 83.2214 100.619 83.4669 100.9 83.7193C101.18 83.9717 101.454 84.231 101.722 84.4971C101.989 84.7633 102.25 85.0361 102.504 85.3154C102.758 85.5947 103.006 85.88 103.246 86.1713C103.486 86.4625 103.719 86.7594 103.944 87.0619C104.17 87.3644 104.388 87.6725 104.598 87.9863C104.809 88.2994 105.011 88.6179 105.206 88.9417C105.401 89.2649 105.587 89.5927 105.766 89.9253C105.944 90.2579 106.114 90.5948 106.276 90.9362C106.438 91.2769 106.591 91.6216 106.736 91.9705C106.881 92.3193 107.017 92.6713 107.144 93.0264C107.272 93.3816 107.391 93.7398 107.5 94.1012C107.61 94.4626 107.712 94.8261 107.804 95.1919C107.895 95.5583 107.978 95.9265 108.052 96.2967C108.126 96.6668 108.19 97.0385 108.245 97.4118C108.301 97.7857 108.347 98.1605 108.384 98.5363C108.421 98.9115 108.449 99.2879 108.467 99.6656C108.485 100.043 108.494 100.42 108.494 100.797C108.494 101.174 108.485 101.552 108.466 101.929C108.447 102.306 108.419 102.682 108.381 103.058C108.344 103.434 108.297 103.808 108.241 104.182C108.186 104.555 108.121 104.926 108.046 105.297C107.972 105.667 107.889 106.035 107.796 106.401C107.704 106.767 107.603 107.131 107.493 107.492C107.382 107.853 107.263 108.211 107.136 108.566C107.007 108.921 106.87 109.273 106.725 109.622C106.58 109.97 106.426 110.315 106.264 110.655C106.102 110.997 105.931 111.333 105.752 111.665C105.573 111.998 105.386 112.326 105.191 112.649C104.996 112.972 104.794 113.29 104.583 113.603C104.372 113.917 104.154 114.225 103.927 114.528C103.702 114.83 103.469 115.126 103.229 115.417C102.987 115.709 102.74 115.994 102.485 116.272C102.231 116.551 101.969 116.823 101.701 117.089C101.434 117.355 101.159 117.614 100.878 117.867C100.597 118.119 100.311 118.364 100.017 118.602C99.7244 118.84 99.4259 119.071 99.1222 119.294C98.8178 119.518 98.5081 119.734 98.1931 119.942C97.878 120.15 97.5583 120.351 97.2339 120.543C96.9088 120.735 96.5794 120.919 96.2456 121.095C95.9118 121.272 95.5735 121.44 95.231 121.599C94.889 121.759 94.5433 121.91 94.1938 122.052C93.8443 122.195 93.4914 122.329 93.1351 122.454C92.7787 122.578 92.4195 122.695 92.0575 122.802C91.6955 122.909 91.3313 123.008 90.9649 123.097C90.5979 123.186 90.229 123.266 89.8582 123.338C89.4906 123.409 89.1217 123.47 88.7516 123.523C88.3808 123.575 88.0091 123.618 87.6364 123.653C87.2638 123.687 86.8905 123.712 86.5166 123.729C86.1427 123.745 85.7688 123.752 85.3949 123.749C85.0204 123.747 84.6461 123.736 84.2722 123.716C83.899 123.695 83.5263 123.665 83.1543 123.627C82.7816 123.588 82.4106 123.541 82.041 123.484C81.6709 123.427 81.3026 123.361 80.9362 123.286C80.5692 123.212 80.2044 123.128 79.8418 123.035C79.4792 122.943 79.119 122.841 78.7614 122.731C78.4038 122.621 78.0493 122.502 77.698 122.374C77.346 122.246 76.9974 122.11 76.6523 121.965C76.3072 121.821 75.9656 121.668 75.6274 121.507C75.2898 121.345 74.9563 121.176 74.6269 120.999C74.2974 120.821 73.9727 120.635 73.6527 120.442C73.3326 120.248 73.0173 120.047 72.7066 119.838C72.396 119.629 72.0907 119.413 71.7907 119.189C71.4907 118.965 71.1966 118.734 70.9085 118.496C70.6198 118.258 70.337 118.013 70.0602 117.76C69.7834 117.509 69.5131 117.25 69.2495 116.984C68.9852 116.719 68.7277 116.448 68.4772 116.17C68.2267 115.892 67.9828 115.609 67.7454 115.319C67.5086 115.029 67.2791 114.733 67.0568 114.433C66.8344 114.132 66.6196 113.825 66.4123 113.514C66.205 113.203 66.0052 112.886 65.8129 112.565C65.6213 112.244 65.4375 111.918 65.2615 111.588C65.0849 111.257 64.9167 110.923 64.757 110.585C64.5973 110.247 64.446 109.904 64.3032 109.558C64.1604 109.212 64.0261 108.863 63.9002 108.511C63.7743 108.159 63.6569 107.803 63.5479 107.445C63.4396 107.087 63.34 106.726 63.2492 106.364C63.1584 106.001 63.0763 105.635 63.003 105.268C62.9298 104.901 62.8656 104.533 62.8104 104.163C62.7553 103.793 62.7096 103.421 62.6733 103.049C62.6363 102.677 62.6085 102.304 62.5897 101.93C62.5709 101.556 62.5612 101.182 62.5605 100.808C62.5605 100.433 62.5693 100.059 62.5869 99.6853C62.605 99.312 62.6319 98.939 62.6676 98.5664C62.704 98.1937 62.7494 97.8224 62.8039 97.4522C62.8577 97.0821 62.921 96.7135 62.9936 96.3465C63.0657 95.9788 63.1468 95.6134 63.237 95.2501C63.3271 94.8869 63.4261 94.5261 63.5338 94.1679C63.6415 93.8096 63.758 93.4542 63.8833 93.1016C64.0086 92.749 64.1423 92.3995 64.2844 92.0532C64.4266 91.7074 64.5772 91.3652 64.7363 91.0264C64.8954 90.6875 65.0626 90.3528 65.238 90.0221C65.4134 89.6914 65.5965 89.3654 65.7876 89.0441C65.9792 88.7222 66.1784 88.4053 66.3851 88.0934C66.5917 87.7815 66.8059 87.4749 67.0276 87.1736C67.2494 86.8718 67.4783 86.5758 67.7144 86.2859C67.9511 85.9959 68.1944 85.7115 68.4443 85.4328C68.6942 85.1548 68.951 84.8826 69.2147 84.6165C69.4777 84.3509 69.7474 84.0919 70.0236 83.8395C70.2998 83.5865 70.5819 83.3407 70.87 83.1021C71.1581 82.8634 71.4518 82.6317 71.7512 82.4069C72.0506 82.1827 72.3553 81.9656 72.6653 81.7558C72.9753 81.546 73.2904 81.344 73.6104 81.1499C73.9304 80.9557 74.2549 80.7697 74.5837 80.5918C74.9131 80.4133 75.2463 80.243 75.5832 80.0808C75.9208 79.9192 76.2618 79.7654 76.6063 79.6195C76.9514 79.4742 77.2996 79.3374 77.651 79.209C78.0023 79.0812 78.3568 78.9616 78.7144 78.8501C79.0721 78.7392 79.4319 78.6371 79.7939 78.5438C80.1565 78.4505 80.521 78.366 80.8874 78.2902Z" fill="#FCB57C"/>
<path d="M86.8557 87.5238C88.7328 87.2965 90.5487 87.2129 92.3957 87.7089C96.1432 88.7151 99.0996 91.1266 101.037 94.4645C103.43 98.5878 104.344 104.063 103.036 108.68C101.6 113.751 98.2767 116.852 93.7964 119.26C91.6563 119.477 89.4242 119.702 87.317 119.139C83.7358 118.184 80.8724 115.598 79.0836 112.417C76.7125 108.201 76.1563 102.757 77.5138 98.1256C79.0423 92.9116 82.2524 89.9965 86.8557 87.5238Z" fill="#FEF9F3"/>
<path d="M86.2852 92.2122C87.5337 92.0243 88.8349 91.8702 90.0862 92.138C92.3635 92.6265 94.403 94.6003 95.4909 96.5853C97.2298 99.7569 97.5267 103.772 96.4858 107.215C95.5397 110.346 93.9596 112.176 91.1375 113.739C89.8861 113.827 88.4873 113.894 87.2453 113.684C85.1325 113.328 83.154 111.632 82.0116 109.884C80.0688 106.916 79.6686 102.921 80.5047 99.5249C81.4085 95.8591 83.1418 94.1258 86.2852 92.2122Z" fill="#3B2A2B"/>
<path d="M81.63 78.9342C84.5574 78.7717 87.3626 79.0732 90.2674 79.3842C91.1054 80.2353 92.0918 80.9277 92.864 81.8512C93.5555 82.677 93.5395 82.5163 93.407 83.6681L92.3107 84.477C87.6829 84.1416 83.337 83.6765 78.791 82.676L81.63 78.9342Z" fill="#FEF9F3"/>
<path d="M138.89 79.7358C139.211 79.608 139.536 79.4878 139.865 79.3751C140.192 79.2617 140.522 79.1565 140.855 79.0594C141.187 78.9617 141.522 78.8718 141.859 78.7898C142.196 78.7084 142.535 78.6345 142.875 78.5681C143.215 78.5017 143.557 78.4434 143.9 78.3933C144.243 78.3432 144.587 78.3009 144.932 78.2665C145.277 78.2321 145.623 78.2058 145.968 78.1876C146.315 78.1694 146.661 78.1591 147.008 78.1566C147.355 78.1547 147.701 78.1607 148.047 78.1744C148.394 78.1882 148.74 78.2101 149.085 78.2402C149.431 78.2703 149.775 78.3085 150.119 78.3548C150.462 78.4005 150.804 78.4544 151.146 78.5164C151.486 78.5784 151.826 78.6482 152.164 78.7259C152.502 78.8036 152.837 78.889 153.171 78.9824C153.505 79.0757 153.837 79.1768 154.166 79.2858C154.495 79.3942 154.821 79.5103 155.145 79.6343C155.469 79.7584 155.79 79.8896 156.108 80.028C156.425 80.167 156.739 80.3133 157.05 80.4667C157.361 80.6201 157.668 80.7805 157.972 80.9477C158.275 81.1156 158.574 81.2903 158.87 81.4719C159.165 81.6535 159.456 81.8418 159.743 82.0365C160.029 82.2319 160.311 82.4336 160.588 82.6415C160.865 82.8501 161.137 83.0646 161.404 83.2851C161.672 83.5061 161.934 83.7332 162.191 83.9662C162.447 84.1992 162.698 84.4381 162.943 84.683C163.189 84.9272 163.429 85.1774 163.663 85.4336C163.897 85.6891 164.125 85.9503 164.347 86.2171C164.569 86.4833 164.784 86.7545 164.993 87.0307C165.202 87.3075 165.405 87.5887 165.601 87.8743C165.797 88.1605 165.986 88.4508 166.169 88.7452C166.352 89.0401 166.527 89.3389 166.696 89.6414C166.865 89.9439 167.026 90.2505 167.181 90.5611C167.336 90.8711 167.483 91.1849 167.623 91.5025C167.763 91.8194 167.895 92.1394 168.02 92.4626C168.145 92.7864 168.263 93.1127 168.372 93.4415C168.483 93.7697 168.585 94.1007 168.68 94.4345C168.774 94.7677 168.86 95.1031 168.939 95.4406C169.018 95.7782 169.089 96.1177 169.152 96.459C169.215 96.7997 169.271 97.1417 169.318 97.4849C169.365 97.8281 169.405 98.1726 169.436 98.5183C169.467 98.8634 169.49 99.2091 169.505 99.5554C169.52 99.9018 169.528 100.248 169.527 100.594C169.526 100.941 169.517 101.288 169.5 101.634C169.483 101.98 169.458 102.326 169.425 102.671C169.391 103.016 169.35 103.36 169.302 103.703C169.253 104.046 169.196 104.388 169.131 104.729C169.065 105.069 168.992 105.408 168.912 105.746C168.831 106.082 168.743 106.418 168.647 106.751C168.55 107.083 168.446 107.414 168.335 107.742C168.223 108.07 168.104 108.395 167.977 108.718C167.85 109.041 167.716 109.361 167.575 109.677C167.433 109.993 167.285 110.306 167.129 110.616C166.972 110.925 166.809 111.231 166.638 111.533C166.468 111.834 166.291 112.132 166.106 112.426C165.922 112.72 165.732 113.009 165.534 113.294C165.336 113.579 165.132 113.859 164.922 114.134C164.711 114.409 164.494 114.68 164.271 114.945C164.048 115.21 163.819 115.47 163.583 115.724C163.348 115.979 163.106 116.228 162.86 116.471C162.613 116.715 162.361 116.953 162.103 117.184C161.845 117.416 161.582 117.641 161.313 117.861C161.045 118.08 160.772 118.293 160.494 118.5C160.215 118.706 159.932 118.906 159.645 119.1C159.357 119.294 159.066 119.481 158.769 119.661C158.473 119.84 158.173 120.014 157.868 120.18C157.564 120.346 157.256 120.505 156.945 120.656C156.633 120.808 156.318 120.952 156 121.09C155.681 121.227 155.359 121.356 155.035 121.479C154.711 121.601 154.384 121.715 154.054 121.822C153.725 121.929 153.393 122.029 153.058 122.12C152.724 122.212 152.388 122.296 152.049 122.372C151.711 122.448 151.371 122.516 151.03 122.576C150.689 122.636 150.346 122.688 150.002 122.732C149.658 122.776 149.314 122.813 148.968 122.841C148.622 122.869 148.276 122.889 147.93 122.901C147.584 122.913 147.237 122.918 146.891 122.914C146.544 122.91 146.198 122.897 145.852 122.877C145.505 122.857 145.16 122.829 144.816 122.793C144.471 122.757 144.127 122.713 143.784 122.661C143.442 122.609 143.1 122.549 142.76 122.481C142.42 122.413 142.082 122.337 141.745 122.254C141.409 122.17 141.075 122.078 140.743 121.979C140.41 121.88 140.081 121.773 139.754 121.658C139.427 121.544 139.102 121.422 138.781 121.293C138.459 121.163 138.141 121.026 137.826 120.881C137.51 120.737 137.199 120.585 136.891 120.426C136.583 120.267 136.279 120.101 135.978 119.928C135.678 119.756 135.381 119.576 135.089 119.389C134.798 119.203 134.51 119.009 134.227 118.809C133.944 118.608 133.666 118.402 133.392 118.189C133.119 117.976 132.85 117.756 132.587 117.531C132.324 117.305 132.066 117.074 131.814 116.837C131.561 116.599 131.314 116.355 131.073 116.107C130.832 115.857 130.597 115.603 130.367 115.343C130.138 115.083 129.915 114.818 129.698 114.548C129.481 114.278 129.27 114.002 129.066 113.722C128.815 113.379 128.575 113.029 128.344 112.671C128.114 112.314 127.894 111.951 127.684 111.581C127.474 111.211 127.275 110.836 127.086 110.455C126.898 110.074 126.72 109.688 126.554 109.297C126.388 108.905 126.233 108.51 126.089 108.11C125.944 107.71 125.812 107.306 125.691 106.898C125.57 106.491 125.461 106.081 125.364 105.667C125.267 105.253 125.181 104.836 125.107 104.418C125.034 103.999 124.972 103.578 124.922 103.156C124.872 102.734 124.835 102.311 124.809 101.887C124.783 101.463 124.77 101.038 124.768 100.613C124.766 100.188 124.777 99.7631 124.8 99.3384C124.823 98.9138 124.858 98.4904 124.904 98.0683C124.951 97.6455 125.01 97.2247 125.081 96.8057C125.151 96.3867 125.234 95.9699 125.329 95.5553C125.424 95.1407 125.53 94.7292 125.648 94.3208C125.766 93.9125 125.896 93.5079 126.037 93.107C126.178 92.7062 126.33 92.3095 126.494 91.9168C126.658 91.5247 126.833 91.1373 127.019 90.7547C127.204 90.3726 127.4 89.9959 127.608 89.6245C127.815 89.2537 128.033 88.8889 128.261 88.53C128.489 88.1712 128.727 87.8192 128.975 87.4741C129.223 87.129 129.48 86.7911 129.748 86.4604C130.015 86.1304 130.292 85.8078 130.577 85.4928C130.863 85.1784 131.158 84.8721 131.461 84.574C131.764 84.2759 132.076 83.9868 132.395 83.7069C132.715 83.4269 133.043 83.156 133.378 82.8942C133.713 82.6325 134.055 82.3807 134.405 82.1389C134.754 81.8965 135.11 81.6645 135.473 81.4428C135.835 81.2211 136.204 81.01 136.578 80.8096C136.953 80.6086 137.333 80.4185 137.719 80.2394C138.104 80.0602 138.494 79.8924 138.89 79.7358Z" fill="#FEF9F3"/>
<path d="M138.89 79.7358C139.212 79.608 139.537 79.4878 139.865 79.3751C140.193 79.2617 140.523 79.1565 140.856 79.0594C141.188 78.9617 141.523 78.8718 141.86 78.7898C142.197 78.7084 142.535 78.6345 142.875 78.5681C143.216 78.5017 143.558 78.4434 143.9 78.3933C144.244 78.3432 144.588 78.3009 144.933 78.2665C145.278 78.2321 145.623 78.2058 145.969 78.1876C146.315 78.1694 146.662 78.1591 147.009 78.1566C147.355 78.1547 147.702 78.1607 148.048 78.1744C148.394 78.1882 148.74 78.2101 149.086 78.2402C149.431 78.2703 149.776 78.3085 150.12 78.3548C150.463 78.4005 150.805 78.4544 151.146 78.5164C151.487 78.5784 151.827 78.6482 152.165 78.7259C152.502 78.8036 152.838 78.889 153.172 78.9824C153.506 79.0757 153.837 79.1768 154.167 79.2858C154.496 79.3942 154.822 79.5103 155.146 79.6343C155.469 79.7584 155.79 79.8896 156.109 80.028C156.426 80.167 156.74 80.3133 157.051 80.4667C157.361 80.6201 157.669 80.7805 157.972 80.9477C158.276 81.1156 158.575 81.2903 158.871 81.4719C159.166 81.6535 159.456 81.8418 159.743 82.0365C160.03 82.2319 160.311 82.4336 160.589 82.6415C160.866 82.8501 161.138 83.0646 161.405 83.2851C161.673 83.5061 161.935 83.7332 162.192 83.9662C162.448 84.1992 162.699 84.4381 162.944 84.683C163.19 84.9272 163.43 85.1774 163.664 85.4336C163.898 85.6891 164.126 85.9503 164.348 86.2171C164.569 86.4833 164.785 86.7545 164.994 87.0307C165.203 87.3075 165.406 87.5887 165.602 87.8743C165.798 88.1605 165.987 88.4508 166.17 88.7452C166.352 89.0401 166.528 89.3389 166.697 89.6414C166.866 89.9439 167.027 90.2505 167.182 90.5611C167.337 90.8711 167.484 91.1849 167.623 91.5025C167.764 91.8194 167.896 92.1394 168.021 92.4626C168.146 92.7864 168.264 93.1127 168.373 93.4415C168.483 93.7697 168.586 94.1007 168.68 94.4345C168.774 94.7677 168.861 95.1031 168.94 95.4406C169.019 95.7782 169.09 96.1177 169.153 96.459C169.216 96.7997 169.272 97.1417 169.319 97.4849C169.366 97.8281 169.405 98.1726 169.437 98.5183C169.468 98.8634 169.491 99.2091 169.506 99.5554C169.521 99.9018 169.528 100.248 169.528 100.594C169.526 100.941 169.517 101.288 169.5 101.634C169.484 101.98 169.459 102.326 169.425 102.671C169.392 103.016 169.351 103.36 169.302 103.703C169.253 104.046 169.196 104.388 169.131 104.729C169.066 105.069 168.993 105.408 168.912 105.746C168.832 106.082 168.744 106.418 168.647 106.751C168.551 107.083 168.447 107.414 168.336 107.742C168.224 108.07 168.105 108.395 167.978 108.718C167.851 109.041 167.717 109.361 167.576 109.677C167.434 109.993 167.285 110.306 167.129 110.616C166.973 110.925 166.809 111.231 166.639 111.533C166.469 111.834 166.291 112.132 166.107 112.426C165.923 112.72 165.732 113.009 165.535 113.294C165.337 113.579 165.133 113.859 164.923 114.134C164.711 114.409 164.494 114.68 164.271 114.945C164.049 115.21 163.819 115.47 163.584 115.724C163.348 115.979 163.107 116.228 162.86 116.471C162.614 116.715 162.362 116.953 162.104 117.184C161.846 117.416 161.583 117.641 161.314 117.861C161.046 118.08 160.773 118.293 160.495 118.5C160.216 118.706 159.933 118.906 159.646 119.1C159.358 119.294 159.066 119.481 158.77 119.661C158.474 119.84 158.173 120.014 157.869 120.18C157.565 120.346 157.257 120.505 156.946 120.656C156.634 120.808 156.319 120.952 156.001 121.09C155.682 121.227 155.36 121.356 155.036 121.479C154.711 121.601 154.384 121.715 154.055 121.822C153.725 121.929 153.394 122.029 153.059 122.12C152.725 122.212 152.388 122.296 152.05 122.372C151.712 122.448 151.372 122.516 151.031 122.576C150.689 122.636 150.347 122.688 150.003 122.732C149.659 122.776 149.314 122.813 148.969 122.841C148.623 122.869 148.277 122.889 147.931 122.901C147.584 122.913 147.238 122.918 146.892 122.914C146.545 122.91 146.198 122.897 145.853 122.877C145.506 122.857 145.161 122.829 144.816 122.793C144.471 122.757 144.127 122.713 143.785 122.661C143.442 122.609 143.101 122.549 142.761 122.481C142.421 122.413 142.083 122.337 141.746 122.254C141.41 122.17 141.076 122.078 140.744 121.979C140.411 121.88 140.081 121.773 139.755 121.658C139.428 121.544 139.103 121.422 138.781 121.293C138.46 121.163 138.142 121.026 137.827 120.881C137.511 120.737 137.2 120.585 136.892 120.426C136.584 120.267 136.28 120.101 135.979 119.928C135.678 119.756 135.382 119.576 135.09 119.389C134.798 119.203 134.511 119.009 134.228 118.809C133.945 118.608 133.666 118.402 133.393 118.189C133.12 117.976 132.851 117.756 132.587 117.531C132.324 117.305 132.067 117.074 131.814 116.837C131.562 116.599 131.315 116.355 131.074 116.107C130.833 115.857 130.597 115.603 130.368 115.343C130.138 115.083 129.915 114.818 129.699 114.548C129.481 114.278 129.271 114.002 129.066 113.722L131.374 113.703C132.426 114.727 133.493 115.784 134.73 116.587C138.046 118.735 142.061 120.256 146.018 119.215C149.59 118.275 152.564 115.441 154.287 112.248C156.859 107.484 157.11 101.542 155.477 96.4318C154.281 92.6871 151.897 89.0326 148.22 87.3519C144.065 85.4524 139.296 86.1551 135.183 87.7503L135.4 86.4566C135.882 86.0442 136.342 85.6356 136.787 85.1818C136.911 85.055 137.032 84.9244 137.155 84.7966C137.226 84.3927 137.252 84.1484 137.411 83.7454C138.245 81.6363 140.905 80.6583 142.814 79.8448L138.89 79.7358Z" fill="#FCB57C"/>
<path d="M142.814 79.8441C145.602 79.5792 147.854 80.6351 150.415 81.6187C146.111 83.4216 141.669 83.8377 137.154 84.796C137.226 84.392 137.251 84.1478 137.41 83.7447C138.244 81.6357 140.905 80.6577 142.814 79.8441Z" fill="#FEF9F3"/>
<path d="M138.89 79.7344L142.814 79.8433C140.905 80.6569 138.244 81.6349 137.41 83.744C137.251 84.147 137.226 84.3912 137.154 84.7952C137.031 84.923 136.91 85.0536 136.786 85.1804C136.341 85.6341 135.881 86.0428 135.399 86.4552L135.182 87.7489C131.075 90.7457 128.133 94.6275 127.382 99.7917C126.659 104.762 128.442 109.72 131.373 113.701L129.066 113.721C128.815 113.378 128.575 113.027 128.344 112.67C128.114 112.313 127.894 111.949 127.684 111.58C127.474 111.21 127.275 110.834 127.086 110.454C126.898 110.073 126.72 109.687 126.554 109.295C126.388 108.904 126.233 108.508 126.089 108.109C125.944 107.708 125.812 107.304 125.691 106.897C125.57 106.49 125.461 106.079 125.364 105.665C125.267 105.251 125.181 104.835 125.107 104.417C125.034 103.998 124.972 103.577 124.922 103.155C124.872 102.733 124.835 102.31 124.809 101.886C124.783 101.461 124.77 101.036 124.768 100.612C124.766 100.187 124.777 99.7616 124.8 99.337C124.823 98.9124 124.858 98.489 124.904 98.0669C124.951 97.6441 125.01 97.2232 125.081 96.8042C125.151 96.3852 125.234 95.9684 125.329 95.5538C125.424 95.1392 125.53 94.7277 125.648 94.3194C125.766 93.911 125.896 93.5064 126.037 93.1056C126.178 92.7048 126.33 92.308 126.494 91.9153C126.658 91.5233 126.833 91.1359 127.019 90.7532C127.204 90.3712 127.4 89.9945 127.608 89.6231C127.815 89.2523 128.033 88.8875 128.261 88.5286C128.489 88.1697 128.727 87.8177 128.975 87.4726C129.223 87.1276 129.48 86.7897 129.748 86.459C130.015 86.1289 130.292 85.8064 130.577 85.4913C130.863 85.1769 131.158 84.8707 131.461 84.5726C131.764 84.2744 132.076 83.9854 132.395 83.7054C132.715 83.4255 133.043 83.1546 133.378 82.8928C133.713 82.631 134.055 82.3792 134.405 82.1375C134.754 81.8951 135.11 81.6631 135.473 81.4414C135.835 81.2197 136.204 81.0086 136.578 80.8082C136.953 80.6071 137.333 80.417 137.719 80.2379C138.104 80.0588 138.494 79.891 138.89 79.7344Z" fill="#FCBD84"/>
<path d="M137.021 90.8059C138.034 90.7627 139.096 90.6772 140.104 90.8078C142.104 91.069 144.111 92.9704 145.165 94.5844C147.333 97.9035 147.794 102.478 146.786 106.26C145.927 109.492 144.434 111.11 141.615 112.77C140.396 112.812 139.068 112.87 137.889 112.515C135.69 111.852 134.057 110.132 132.966 108.169C131.061 104.737 130.835 100.05 132.033 96.3553C132.979 93.4355 134.376 92.2292 137.021 90.8059Z" fill="#3B2A2B"/>
<path d="M95.5494 135.823C100.318 133.537 105.16 136.306 110.118 136.423C114.957 136.539 119.678 135.439 124.474 134.987C126.643 134.865 128.712 134.529 130.491 136.056C131.708 137.099 132.005 138.55 131.956 140.073C131.886 142.266 131.004 144.243 130.117 146.211C125.922 150.799 121.429 153.559 115.019 153.749C109.357 153.917 102.805 152.363 98.6618 148.32C98.4335 148.098 98.2203 147.861 98.0005 147.631C97.1446 146.495 96.4203 145.326 95.804 144.04C94.4531 141.221 94.5263 138.72 95.5494 135.823Z" fill="#973E24"/>
<path d="M98 147.632C108.585 145.958 119.421 147.068 130.116 146.213C125.921 150.801 121.429 153.56 115.018 153.751C109.357 153.919 102.804 152.364 98.6614 148.322C98.4331 148.099 98.2198 147.863 98 147.632Z" fill="#A64528"/>
<path d="M95.5488 135.823C100.317 133.537 105.159 136.306 110.117 136.423C114.956 136.539 119.678 135.44 124.474 134.988C125.471 135.445 126.359 135.877 127.441 136.097C126.97 137.747 126.71 138.728 125.099 139.633C119.939 142.531 109.207 142.719 103.652 140.857C101.603 140.17 101.269 139.11 100.399 137.295C98.1567 136.509 97.6044 137.656 95.5488 135.823Z" fill="#FEF9F3"/>
<path d="M95.5488 135.823C100.317 133.537 105.159 136.306 110.117 136.423C114.956 136.539 119.678 135.44 124.474 134.988C125.471 135.445 126.359 135.877 127.441 136.097C122.426 136.645 117.385 137.379 112.337 137.457C108.453 137.517 104.224 136.764 100.399 137.295C98.1567 136.509 97.6044 137.656 95.5488 135.823Z" fill="#A64528"/>
<path d="M113.435 117.507C116.553 117.419 122.534 117.713 124.722 120.327C125.558 121.325 125.457 121.647 125.364 122.864C124.492 124.249 123.802 124.891 122.419 125.757C121.151 125.93 119.871 125.997 118.592 126.047C115.767 126.156 112.852 125.631 110.722 123.649C110.398 122.875 110.074 122.509 110.248 121.647C110.635 119.728 111.917 118.6 113.435 117.507Z" fill="#D07141"/>
<path d="M113.467 119.887C115.913 119.827 118.425 119.85 120.805 120.507C122.01 120.84 122.69 121.101 123.314 122.219L122.837 123.084C120.064 123.255 115.421 124.134 113.077 122.398C112.68 121.092 112.835 121.123 113.467 119.887Z" fill="#FCBD84"/>
<path d="M40.3911 105.078C40.8909 105.073 41.1375 105.054 41.6647 105.134C45.3154 105.683 48.4569 109.706 50.5129 112.481C50.2382 115.546 51.0451 121.349 50.1143 123.88C49.6304 123.525 48.9393 123.084 48.5468 122.607C46.3965 119.994 47.1682 115.807 47.3394 112.684C47.1686 112.484 46.9953 112.285 46.8268 112.083C44.8383 109.695 41.8282 108.74 40.0117 106.491L40.3911 105.078Z" fill="#E7925C"/>
<path d="M176.718 103.729C176.668 106.533 177.467 110.831 175.686 113.116C175.234 112.531 174.857 112.045 174.692 111.302C173.942 107.929 173.961 105.485 175.918 102.643L176.718 103.729Z" fill="#E7925C"/>
<path d="M175.918 102.643C177.558 101.781 178.816 101.382 180.658 101.88C181.991 102.239 183.022 102.961 184.101 103.79L184.472 104.631C182.416 105.051 178.849 103.992 176.718 103.729L175.918 102.643Z" fill="#E7925C"/>
<path d="M137.276 35.752C145.944 54.6223 149.654 63.6485 167.252 75.9656C168.317 79.5994 168.771 83.5705 169.076 87.3405C164.19 81.0161 158.975 76.3574 150.686 75.2638C144.008 74.3836 136.895 76.1695 131.666 80.4788C126.419 84.8012 123.762 90.576 121.685 96.8713L111.654 96.9013C108.902 88.5374 105.669 81.4971 97.2885 77.3485C91.1473 74.3084 83.5011 73.8274 77.0442 76.1319C70.4915 78.4702 65.4251 83.5536 62.5879 89.8226C61.4324 92.376 60.8095 95.0318 60.2271 97.7562C58.1067 97.7055 56.3063 97.4115 54.2617 96.8525C55.532 90.2481 55.9426 83.7236 56.1715 77.0234C62.354 75.5692 68.5027 74.6983 74.7557 73.6452C80.1143 72.7424 85.2964 70.9452 90.4117 69.1471C109.511 62.4337 125.448 52.4027 137.276 35.752Z" fill="#FCB57C"/>
<path d="M136.83 61.2742C137.356 61.2403 137.882 61.2046 138.409 61.1868C143.783 61.0055 148.712 61.9665 152.724 65.8465C154.007 67.0884 154.74 68.2026 154.781 70.0007C153.566 70.4413 152.897 69.7696 151.765 69.2426C146.512 66.738 141.224 66.9973 135.652 66.0297C134.317 65.7986 133.718 65.7074 132.947 64.5791C133.569 62.8506 135.264 62.0595 136.83 61.2742Z" fill="#652214"/>
<path d="M46.9785 97.5123C47.756 96.3878 48.3147 95.4408 49.5806 94.8104C51.2635 94.755 52.6021 95.9603 53.9336 96.8697C53.7962 98.3099 53.7076 99.7811 53.4968 101.211C51.1191 100.318 49.0856 98.8999 46.9785 97.5123Z" fill="#652214"/>
<path d="M87.0546 62.6297C89.1862 62.3958 91.7424 62.0501 93.5819 63.432C94.1841 63.8849 94.0685 64.2371 94.1803 64.9192L93.658 65.5796C88.7493 65.9404 84.9943 67.3965 80.7038 69.6456C79.708 70.2233 78.56 71.0313 77.4242 71.2577C76.5045 71.4409 76.3908 71.3554 75.5801 70.8509C75.6036 70.3351 75.5688 70.2816 75.8018 69.7273C77.334 66.0747 83.5166 63.7796 87.0546 62.6297Z" fill="#652214"/>
<path d="M93.3802 163.805C104.665 166.318 114.757 166.729 126.251 165.623L126.217 167.994C126.557 170.891 126.824 173.795 127.017 176.705L133.531 177.596C131.468 184.184 128.239 189.865 121.937 193.284C116.354 196.312 109.528 197.118 103.449 195.22C97.7703 193.447 91.6573 189.035 89.0935 183.525C88.3607 181.95 87.8055 180.236 87.4062 178.547L93.3849 177.78L93.4357 166.489L93.3802 163.805Z" fill="#FCB57C"/>
<path d="M93.3809 163.805C104.666 166.318 114.758 166.729 126.251 165.623L126.218 167.994C125.314 168.509 124.394 168.993 123.457 169.446C115.654 173.148 107.987 172.9 100.167 169.557C98.1241 168.684 96.1776 167.402 94.0817 166.698L93.4363 166.489L93.3809 163.805Z" fill="#E7925C"/>
</svg>
