<?xml version="1.0" encoding="utf-8" ?>
<svg xmlns="http://www.w3.org/2000/svg" xmlns:xlink="http://www.w3.org/1999/xlink" width="1024" height="1024">
	<path fill="#19AF8A" d="M472.295 376.348C501.257 384.212 525.954 385.555 555.064 376.224L556.5 382.999C569.689 382.72 583.864 386.269 596.507 389.936C600.009 390.952 604.37 393.272 607.92 393.507C640.545 408.343 657.052 440.107 669.051 472.093C690.13 528.281 697.679 587.108 706.277 646.067C705.842 647.579 705.43 648.197 704.36 649.351C687.613 657.305 669.559 657.449 651.444 655.783C650.161 655.501 648.342 655.272 647.236 654.594C643.999 652.609 639.359 615.404 638.261 609.812C637.939 608.587 637.833 608.413 636.934 607.52L632.031 609.511C634.35 624.939 635.65 640.744 637.501 656.254C638.129 661.509 638.487 666.886 639.448 672.084L639.483 672.74C639.964 680.768 641.34 688.858 642.263 696.856Q644.937 720.88 647.904 744.87C649.018 753.697 650.919 763.052 651.143 771.925C651.19 773.772 651.331 775.642 650.058 777.107C644.754 783.211 617.017 788.862 608.492 789.462C608.495 793.547 607.807 799.612 608.989 803.44L608.92 805.956C596.192 808.033 583.726 810.49 570.865 811.799C561.297 812.773 551.19 812.518 541.755 814.107C541.033 807.823 541.021 801.346 540.919 795.025C523.383 794.801 505.614 795.762 488.117 794.52C465.146 793.41 442.73 790.553 419.985 787.464L419.348 787.387C407.649 783.286 385.412 782.853 377.355 772.567C376.962 763.12 379.3 753.304 380.83 744.003L387.717 702.944L397.442 644.406C399.398 632.391 401.078 620.272 403.451 608.336L403.47 607.904C402.414 607.41 401.617 606.77 400.986 605.761C400.342 604.731 400.547 603.201 400.63 602.044C401.047 596.241 402.097 590.391 402.818 584.61L406.463 553.98Q408.6 535.566 411.183 517.209C412.111 510.564 412.754 503.547 414.535 497.077L414.155 496.178C398.335 507.453 376.706 521.008 357.908 525.908C344.945 529.287 331.461 528.31 319.822 521.377C293.733 505.835 278.921 461.375 271.648 432.919C270.905 429.137 270.195 425.418 269.883 421.573C276.902 424.001 283.543 424.832 290.839 423.241C306.88 419.745 320.755 408.531 329.611 394.927L332.887 400.351C340.373 414.989 347.396 429.748 356.526 443.473L356.856 443.439C375.494 424.186 398.13 407.062 422.053 394.961C427.28 394.253 432.925 391.215 438.091 389.766C448.594 386.82 459.375 385.281 470.196 384.13C470.914 383.132 471.055 382.321 471.347 381.154L472.295 376.348Z"/>
	<path fill="#715D91" d="M403.47 607.904C403.609 607.929 403.748 607.953 403.886 607.979C408.553 608.887 412.984 610.886 417.642 611.934C429.265 614.549 441.235 616.319 453.05 617.801Q462.522 618.906 472.025 619.697Q481.528 620.488 491.052 620.965Q500.576 621.442 510.111 621.605Q519.646 621.767 529.18 621.615Q538.715 621.462 548.24 620.995Q557.764 620.528 567.268 619.747Q576.772 618.965 586.245 617.871Q595.718 616.776 605.15 615.369C613.862 614.003 623.936 613.021 632.031 609.511C634.35 624.939 635.65 640.744 637.501 656.254C638.129 661.509 638.487 666.886 639.448 672.084L639.483 672.74C639.964 680.768 641.34 688.858 642.263 696.856Q644.937 720.88 647.904 744.87C649.018 753.697 650.919 763.052 651.143 771.925C651.19 773.772 651.331 775.642 650.058 777.107C644.754 783.211 617.017 788.862 608.492 789.462C608.495 793.547 607.807 799.612 608.989 803.44L608.92 805.956C596.192 808.033 583.726 810.49 570.865 811.799C561.297 812.773 551.19 812.518 541.755 814.107C541.033 807.823 541.021 801.346 540.919 795.025C523.383 794.801 505.614 795.762 488.117 794.52C465.146 793.41 442.73 790.553 419.985 787.464L419.348 787.387C407.649 783.286 385.412 782.853 377.355 772.567C376.962 763.12 379.3 753.304 380.83 744.003L387.717 702.944L397.442 644.406C399.398 632.391 401.078 620.272 403.451 608.336L403.47 607.904Z"/>
	<path fill="#EA8F4B" d="M540.919 795.025C556.862 795.135 573.21 793.566 589.038 791.798C595.516 791.074 601.994 789.94 608.492 789.462C608.495 793.547 607.807 799.612 608.989 803.44L608.92 805.956C596.192 808.033 583.726 810.49 570.865 811.799C561.297 812.773 551.19 812.518 541.755 814.107C541.033 807.823 541.021 801.346 540.919 795.025Z"/>
	<path fill="#F9B267" d="M472.295 376.348C501.257 384.212 525.954 385.555 555.064 376.224L556.5 382.999C556.617 389.868 553.969 395.587 549.24 400.505C540.399 409.699 527.715 412.927 515.315 413.094C501.814 413.276 487.232 410.86 477.203 401.041C473.403 397.321 470.145 392.418 470.054 386.946C470.039 385.998 470.108 385.072 470.196 384.13C470.914 383.132 471.055 382.321 471.347 381.154L472.295 376.348Z"/>
	<path fill="#EA8F4B" d="M472.295 376.348C501.257 384.212 525.954 385.555 555.064 376.224L556.5 382.999C549.859 383.343 543.004 387.622 536.772 389.865C531.422 391.789 525.647 392.907 520.006 393.517C503.268 395.329 484.652 391.801 471.347 381.154L472.295 376.348Z"/>
	<path fill="#0B8D70" d="M636.934 607.52C633.73 598.855 633.257 571.301 632.403 560.519Q630.327 532.871 626.895 505.359C626.02 498.409 620.653 466.145 622.612 461.326C623.842 462.06 624.37 463.985 624.714 465.344C628.309 479.564 641.585 598.811 638.44 609.143C638.373 609.364 638.321 609.589 638.261 609.812C637.939 608.587 637.833 608.413 636.934 607.52Z"/>
	<path fill="#0B8D70" d="M414.155 496.178C411.866 489.676 418.964 460.235 422.152 453.456C422.704 452.284 423.373 451.169 424.059 450.072C423.537 459.295 420.832 484.937 417.643 492.955C417.079 494.373 416.119 495.726 414.974 496.735C414.835 496.857 414.682 496.963 414.535 497.077L414.155 496.178Z"/>
	<path fill="#0B8D70" d="M356.526 443.473L356.856 443.439C358.024 444.585 359.342 445.752 360.179 447.175C363.282 452.451 365.239 459.358 363.623 465.392L363.025 465.726C362.874 465.621 362.709 465.531 362.57 465.409C359.074 462.316 357.52 452.371 357.343 447.767C357.29 446.4 357.071 445.279 356.68 443.966C356.63 443.801 356.577 443.637 356.526 443.473Z"/>
	<path fill="#F9B267" d="M571.121 439.843C571.716 440.064 571.612 440.012 572.291 440.339C578.278 443.227 580.673 453.692 582.659 459.592C587.509 459.121 597.15 458.084 601.446 460.616C602.511 461.244 603.366 462.011 603.593 463.287C604.491 468.332 594.046 478.24 590.869 481.87C592.218 485.898 596.182 497.11 594.472 501.033C593.99 502.139 593.434 502.874 592.218 503.206C588.45 504.236 575.225 497.712 570.865 495.98C566.24 499.235 560.276 504.203 554.854 505.69C553.262 506.127 552.474 505.906 551.079 505.092C548.165 500.027 551.647 488.082 552.564 482.482C549.179 479.504 538.898 471.792 538.631 467.391C538.557 466.17 538.708 465.528 539.481 464.593C542.56 460.868 555.14 460.485 560.021 459.861C563.862 453.257 564.791 444.683 571.121 439.843Z"/>
	<path fill="#B75A27" d="M307.32 313.058Q305.571 306.17 305.083 299.081C303.471 275.067 310.493 259.836 323.143 240.137C328.098 232.422 332.825 224.669 335.698 215.9C339.232 205.115 340.46 193.691 342.12 182.51C346.891 150.372 353.933 119.619 376.099 94.4532C405.854 60.6715 451.712 40.9832 496.394 38.2609C519.943 36.8261 546.373 40.7606 566.735 53.1593C571.816 56.2536 576.284 60.0208 580.734 63.9391C591.687 64.5709 602.808 66.0686 613.096 70.0427C626.99 75.41 639.766 85.4761 648.941 97.1346C665.953 118.752 673.053 145.225 676.431 172.08C677.817 183.097 678.666 194.374 681.378 205.16C683.384 213.136 686.441 220.574 689.796 228.049C692.931 232.217 695.233 237.197 698.003 241.632C710.829 262.168 719.387 280.065 715.792 305.074C713.054 324.128 703.37 342.033 687.854 353.648Q685.72 355.252 683.448 356.655Q681.177 358.057 678.786 359.246Q676.396 360.435 673.907 361.401Q671.418 362.366 668.851 363.1C665.277 364.314 661.559 364.936 657.794 365.149C648.24 379.865 636.054 388.311 618.789 391.952C615.184 392.712 611.489 392.784 607.92 393.507C604.37 393.272 600.009 390.952 596.507 389.936C583.864 386.269 569.689 382.72 556.5 382.999L555.064 376.224C525.954 385.555 501.257 384.212 472.295 376.348L471.347 381.154C471.055 382.321 470.914 383.132 470.196 384.13C459.375 385.281 448.594 386.82 438.091 389.766C432.925 391.215 427.28 394.253 422.053 394.961C419.54 394.486 417.181 394.439 414.641 394.448C409.567 393.934 404.603 393.099 399.696 391.683C384.8 387.386 373.319 378.507 365.877 364.941C354.587 364.07 345.252 361.408 336.066 354.587C336.807 349.776 339.2 345.019 340.623 340.352C341.71 336.787 342.512 332.33 340.524 328.931C338.54 325.538 335.023 324.603 331.469 323.764C325.5 325.581 322.128 329.354 319.013 334.54C313.805 328.191 310.301 320.658 307.32 313.058ZM544.545 314.869C521.116 318.387 506.246 317.102 483.419 311.627C483.663 314.332 484.283 315.663 486.418 317.365C495.682 324.745 516.213 325.907 527.539 324.333C532.518 323.641 540.29 322.096 543.531 317.933C544.427 316.781 544.719 316.321 544.545 314.869Z"/>
	<path fill="#F9B267" d="M527.673 228.554C529.641 219.959 533.112 212.219 538.747 205.382C547.239 195.079 559.865 188.102 573.225 186.974C593.359 185.276 611.854 193.538 622.802 210.835C624.711 213.85 627.195 220.845 629.431 222.753L631.146 222.253C635 221.212 640.893 220.189 644.521 222.193C645.872 222.939 647.117 224.155 647.498 225.692C647.817 226.982 647.992 228.334 648.188 229.648C654.57 229.664 660.483 231.121 665.053 235.897C671.048 242.162 672.841 252.78 672.421 261.171C671.801 273.556 666.663 285.352 657.365 293.663C648.586 301.51 640.462 304.199 628.752 304.057C618.289 334.507 596.524 356.627 567.794 370.699C563.67 372.719 559.398 374.716 555.064 376.224C525.954 385.555 501.257 384.212 472.295 376.348Q467.04 374.367 461.875 372.159C440.194 362.702 421.148 346.242 409.604 325.495C406.304 319.563 403.843 313.347 401.373 307.043C399.326 307.439 397.223 307.812 395.142 307.96Q394.242 308.015 393.341 308.026Q392.439 308.036 391.538 308.002Q390.637 307.968 389.739 307.89Q388.841 307.812 387.948 307.69Q387.055 307.568 386.169 307.402Q385.283 307.236 384.406 307.026Q383.529 306.817 382.664 306.564Q381.798 306.312 380.946 306.017Q380.094 305.723 379.258 305.387Q378.421 305.05 377.602 304.673Q376.783 304.296 375.984 303.879Q375.185 303.463 374.407 303.007Q373.629 302.551 372.874 302.058Q372.12 301.564 371.391 301.034Q370.661 300.505 369.959 299.939Q369.257 299.374 368.583 298.775Q367.719 298.002 366.894 297.187Q366.069 296.372 365.285 295.518Q364.501 294.663 363.76 293.772Q363.018 292.88 362.321 291.954Q361.625 291.027 360.974 290.067Q360.323 289.107 359.72 288.117Q359.117 287.126 358.564 286.108Q358.01 285.089 357.507 284.044Q357.004 283 356.552 281.932Q356.101 280.864 355.702 279.775Q355.303 278.686 354.958 277.579Q354.613 276.472 354.323 275.349Q354.033 274.227 353.798 273.091Q353.563 271.956 353.383 270.81Q353.204 269.665 353.081 268.512Q352.958 267.359 352.892 266.201C352.384 257.096 353.756 246.013 360.293 239.1C364.762 234.374 369.97 233.097 376.21 232.93C376.853 232.289 376.979 232.142 377.288 231.241C376.889 230.384 376.391 229.538 376.496 228.555C376.629 227.318 377.38 226.488 378.359 225.812C382.047 223.266 389.963 224.149 394.085 225.199C397.933 225.991 401.701 227.054 405.485 228.104C406.588 223.314 408.066 218.807 410.455 214.489C416.883 202.871 428.635 193.728 441.4 190.14C454.903 186.345 470.281 187.894 482.479 194.93C495.533 202.461 502.85 214.25 506.7 228.493C513.973 226.725 520.409 227.103 527.673 228.554ZM544.545 314.869C521.116 318.387 506.246 317.102 483.419 311.627C483.663 314.332 484.283 315.663 486.418 317.365C495.682 324.745 516.213 325.907 527.539 324.333C532.518 323.641 540.29 322.096 543.531 317.933C544.427 316.781 544.719 316.321 544.545 314.869Z"/>
	<path fill="#3A3029" d="M527.673 228.554C529.641 219.959 533.112 212.219 538.747 205.382C547.239 195.079 559.865 188.102 573.225 186.974C593.359 185.276 611.854 193.538 622.802 210.835C624.711 213.85 627.195 220.845 629.431 222.753L631.146 222.253C635 221.212 640.893 220.189 644.521 222.193C645.872 222.939 647.117 224.155 647.498 225.692C647.817 226.982 647.992 228.334 648.188 229.648C642.304 230.753 636.3 231.666 630.544 233.325C630.76 248.726 626.754 262.298 615.836 273.629C606.501 283.319 593.043 288.689 579.66 288.902Q578.366 288.934 577.072 288.902Q575.777 288.87 574.486 288.773Q573.195 288.676 571.911 288.514Q570.626 288.353 569.352 288.127Q568.077 287.902 566.815 287.613Q565.553 287.324 564.307 286.972Q563.061 286.621 561.834 286.207Q560.607 285.794 559.403 285.319Q558.198 284.845 557.019 284.311Q555.839 283.777 554.688 283.185Q553.537 282.593 552.417 281.944Q551.297 281.295 550.21 280.59Q549.124 279.886 548.074 279.128Q547.025 278.371 546.014 277.562Q545.003 276.752 544.035 275.894Q543.066 275.035 542.141 274.129C532.263 264.368 527.224 251.365 526.904 237.548C520.279 237.247 514.057 237.098 507.454 237.95C506.314 253.398 501.683 266.415 489.579 276.776Q488.577 277.632 487.534 278.437Q486.491 279.242 485.41 279.995Q484.329 280.748 483.212 281.447Q482.094 282.145 480.944 282.788Q479.794 283.43 478.613 284.016Q477.433 284.601 476.225 285.127Q475.017 285.653 473.784 286.119Q472.552 286.585 471.298 286.989Q470.044 287.394 468.772 287.736Q467.499 288.078 466.212 288.357Q464.924 288.636 463.624 288.851Q462.324 289.066 461.015 289.217Q459.706 289.368 458.391 289.454Q457.077 289.54 455.759 289.561Q454.442 289.582 453.125 289.538Q451.808 289.494 450.495 289.385Q449.246 289.287 448.004 289.127Q446.762 288.966 445.529 288.745Q444.296 288.523 443.076 288.24Q441.856 287.957 440.652 287.613Q439.447 287.27 438.261 286.867Q437.075 286.464 435.911 286.002Q434.747 285.54 433.607 285.021Q432.467 284.503 431.354 283.927Q430.242 283.352 429.159 282.722Q428.076 282.093 427.027 281.41Q425.977 280.727 424.962 279.992Q423.947 279.258 422.971 278.474Q421.994 277.69 421.057 276.858Q420.121 276.026 419.227 275.149Q418.333 274.271 417.484 273.351Q416.635 272.43 415.833 271.468C407.588 261.682 404.877 250.737 403.929 238.26C394.731 236.304 385.347 235.145 376.21 232.93C376.853 232.289 376.979 232.142 377.288 231.241C376.889 230.384 376.391 229.538 376.496 228.555C376.629 227.318 377.38 226.488 378.359 225.812C382.047 223.266 389.963 224.149 394.085 225.199C397.933 225.991 401.701 227.054 405.485 228.104C406.588 223.314 408.066 218.807 410.455 214.489C416.883 202.871 428.635 193.728 441.4 190.14C454.903 186.345 470.281 187.894 482.479 194.93C495.533 202.461 502.85 214.25 506.7 228.493C513.973 226.725 520.409 227.103 527.673 228.554Z"/>
	<path fill="#F9B267" d="M573.006 196.025Q574.028 195.886 575.056 195.797Q576.084 195.707 577.115 195.669Q578.146 195.63 579.178 195.642Q580.21 195.653 581.24 195.716Q582.27 195.778 583.295 195.89Q584.321 196.003 585.34 196.165Q586.359 196.328 587.369 196.54Q588.378 196.752 589.377 197.014Q590.375 197.275 591.359 197.585Q592.343 197.895 593.311 198.252Q594.279 198.61 595.228 199.015Q596.177 199.419 597.105 199.87Q598.034 200.32 598.939 200.816Q599.844 201.311 600.723 201.85Q601.603 202.389 602.456 202.971Q603.308 203.552 604.131 204.175Q604.954 204.797 605.745 205.459Q606.536 206.121 607.295 206.821Q608.053 207.521 608.776 208.258Q609.499 208.994 610.185 209.764Q610.871 210.535 611.518 211.338Q612.166 212.142 612.773 212.976Q613.381 213.81 613.947 214.673Q614.512 215.535 615.036 216.425Q615.559 217.314 616.037 218.228Q616.516 219.142 616.95 220.078Q617.384 221.015 617.771 221.971Q618.158 222.927 618.498 223.902Q618.838 224.876 619.13 225.865Q619.422 226.855 619.665 227.858Q619.908 228.86 620.102 229.874Q620.296 230.887 620.44 231.909Q620.584 232.931 620.678 233.958Q620.772 234.986 620.815 236.017Q620.859 237.048 620.852 238.079Q620.845 239.111 620.787 240.141Q620.73 241.171 620.622 242.198Q620.514 243.224 620.356 244.243Q620.198 245.263 619.991 246.274Q619.783 247.285 619.526 248.284Q619.27 249.283 618.964 250.269Q618.659 251.254 618.306 252.224Q617.953 253.193 617.552 254.144Q617.152 255.095 616.706 256.026Q616.26 256.956 615.768 257.863Q615.277 258.771 614.742 259.653Q614.207 260.535 613.629 261.39Q613.052 262.245 612.433 263.071Q611.814 263.896 611.156 264.691Q610.497 265.485 609.801 266.247Q609.104 267.008 608.372 267.734Q607.639 268.461 606.871 269.15Q606.104 269.84 605.303 270.491Q604.503 271.142 603.672 271.753Q602.841 272.365 601.98 272.935Q601.12 273.504 600.233 274.031Q599.346 274.559 598.435 275.042Q597.523 275.525 596.589 275.963Q595.654 276.401 594.7 276.792Q593.745 277.184 592.772 277.528Q591.8 277.873 590.812 278.169Q589.823 278.466 588.822 278.714Q587.82 278.961 586.808 279.16Q585.795 279.358 584.774 279.507Q583.747 279.657 582.714 279.755Q581.681 279.854 580.644 279.902Q579.607 279.95 578.569 279.947Q577.531 279.944 576.495 279.889Q575.459 279.835 574.426 279.73Q573.394 279.625 572.368 279.469Q571.342 279.313 570.324 279.107Q569.307 278.901 568.301 278.645Q567.296 278.389 566.304 278.084Q565.312 277.779 564.336 277.425Q563.36 277.071 562.403 276.67Q561.446 276.269 560.51 275.821Q559.573 275.373 558.66 274.88Q557.747 274.387 556.859 273.849Q555.972 273.311 555.111 272.731Q554.251 272.15 553.421 271.527Q552.59 270.905 551.791 270.243Q550.992 269.58 550.227 268.879Q549.462 268.178 548.732 267.44Q548.002 266.703 547.309 265.93Q546.616 265.157 545.962 264.351Q545.309 263.545 544.695 262.708Q544.082 261.871 543.51 261.004Q542.939 260.138 542.411 259.245Q541.883 258.351 541.399 257.433Q540.915 256.514 540.478 255.573Q540.04 254.632 539.649 253.671Q539.258 252.71 538.915 251.73Q538.572 250.751 538.277 249.755Q537.983 248.76 537.738 247.752Q537.492 246.743 537.297 245.724Q537.102 244.705 536.957 243.677Q536.812 242.649 536.718 241.616Q536.624 240.582 536.581 239.545Q536.538 238.508 536.546 237.47Q536.553 236.433 536.612 235.396Q536.672 234.36 536.781 233.328Q536.891 232.296 537.052 231.271Q537.213 230.246 537.423 229.229Q537.634 228.213 537.895 227.209Q538.155 226.204 538.465 225.213Q538.775 224.223 539.133 223.249Q539.491 222.275 539.896 221.319Q540.302 220.364 540.754 219.43Q541.206 218.496 541.704 217.585Q542.201 216.674 542.743 215.789Q543.285 214.903 543.87 214.046Q544.454 213.188 545.08 212.361Q545.707 211.533 546.373 210.737Q547.039 209.941 547.743 209.179Q548.448 208.417 549.189 207.691Q549.93 206.964 550.706 206.275Q551.482 205.586 552.291 204.935Q553.1 204.285 553.94 203.676Q554.78 203.066 555.649 202.499Q556.518 201.931 557.414 201.407Q558.309 200.883 559.23 200.404Q560.151 199.924 561.094 199.491Q562.036 199.058 563 198.671Q563.963 198.285 564.944 197.946Q565.925 197.607 566.922 197.317Q567.918 197.027 568.928 196.787Q569.937 196.546 570.957 196.356Q571.978 196.165 573.006 196.025Z"/>
	<path fill="#F7F0E9" d="M567.419 210.884Q568.101 210.746 568.79 210.643Q569.478 210.539 570.17 210.469Q570.863 210.399 571.558 210.364Q572.253 210.328 572.949 210.327Q573.645 210.326 574.34 210.359Q575.036 210.393 575.728 210.46Q576.421 210.527 577.11 210.629Q577.798 210.731 578.481 210.866Q579.164 211.001 579.839 211.17Q580.514 211.339 581.18 211.541Q581.846 211.743 582.502 211.978Q583.157 212.212 583.8 212.479Q584.443 212.745 585.072 213.043Q585.701 213.341 586.314 213.67Q586.928 213.999 587.525 214.357Q588.121 214.716 588.699 215.103Q589.277 215.491 589.836 215.907Q590.394 216.322 590.931 216.765Q591.469 217.207 591.983 217.676Q592.498 218.145 592.989 218.638Q593.48 219.131 593.946 219.648Q594.412 220.165 594.852 220.705Q595.292 221.244 595.705 221.804Q596.117 222.365 596.502 222.945Q596.887 223.525 597.242 224.123Q597.598 224.722 597.923 225.337Q598.249 225.952 598.544 226.582Q598.839 227.213 599.102 227.857Q599.366 228.501 599.597 229.158Q599.828 229.814 600.027 230.481Q600.226 231.148 600.391 231.825Q600.557 232.501 600.689 233.184Q600.821 233.867 600.919 234.557Q601.017 235.246 601.081 235.939Q601.145 236.632 601.175 237.327Q601.205 238.023 601.2 238.719Q601.196 239.415 601.157 240.11Q601.118 240.805 601.045 241.497Q600.972 242.189 600.864 242.877Q600.757 243.564 600.616 244.246Q600.475 244.928 600.301 245.601Q600.126 246.275 599.919 246.94Q599.711 247.604 599.471 248.257Q599.232 248.911 598.96 249.552Q598.688 250.192 598.385 250.819Q598.081 251.445 597.748 252.056Q597.414 252.667 597.05 253.261Q596.687 253.854 596.295 254.429Q595.902 255.004 595.482 255.559Q595.062 256.114 594.615 256.648Q594.168 257.181 593.695 257.692Q593.223 258.203 592.725 258.69Q592.228 259.177 591.707 259.638Q591.186 260.1 590.643 260.536Q590.1 260.971 589.536 261.379Q588.973 261.787 588.389 262.167Q587.806 262.547 587.205 262.898Q586.604 263.249 585.986 263.569Q585.368 263.89 584.735 264.179Q584.102 264.469 583.456 264.727Q582.809 264.985 582.151 265.211Q581.493 265.437 580.824 265.63Q580.155 265.824 579.478 265.984Q578.801 266.144 578.116 266.27Q577.439 266.395 576.756 266.487Q576.073 266.579 575.387 266.637Q574.701 266.695 574.013 266.72Q573.324 266.745 572.635 266.736Q571.947 266.728 571.259 266.685Q570.572 266.643 569.887 266.567Q569.203 266.491 568.523 266.382Q567.843 266.272 567.169 266.13Q566.495 265.988 565.829 265.813Q565.162 265.638 564.506 265.43Q563.849 265.223 563.203 264.984Q562.557 264.745 561.923 264.475Q561.29 264.204 560.67 263.903Q560.051 263.602 559.447 263.271Q558.843 262.94 558.256 262.581Q557.668 262.221 557.099 261.832Q556.53 261.444 555.981 261.029Q555.432 260.613 554.903 260.171Q554.375 259.73 553.869 259.263Q553.362 258.795 552.88 258.304Q552.397 257.813 551.939 257.299Q551.48 256.785 551.048 256.249Q550.615 255.713 550.209 255.156Q549.803 254.6 549.425 254.024Q549.047 253.449 548.697 252.855Q548.347 252.262 548.027 251.652Q547.706 251.042 547.416 250.418Q547.126 249.793 546.867 249.155Q546.607 248.517 546.379 247.867Q546.151 247.217 545.956 246.557Q545.76 245.896 545.596 245.227Q545.433 244.558 545.302 243.882Q545.171 243.206 545.074 242.524Q544.976 241.842 544.912 241.156Q544.848 240.47 544.818 239.782Q544.787 239.094 544.79 238.405Q544.793 237.717 544.83 237.029Q544.867 236.341 544.937 235.656Q545.007 234.971 545.111 234.29Q545.215 233.609 545.351 232.934Q545.488 232.259 545.658 231.591Q545.827 230.923 546.029 230.265Q546.231 229.606 546.465 228.958Q546.699 228.311 546.964 227.675Q547.229 227.039 547.525 226.417Q547.821 225.795 548.147 225.188Q548.472 224.582 548.828 223.991Q549.183 223.401 549.566 222.829Q549.95 222.257 550.36 221.704Q550.771 221.151 551.209 220.619Q551.646 220.087 552.109 219.577Q552.572 219.067 553.059 218.58Q553.547 218.094 554.057 217.631Q554.568 217.169 555.1 216.732Q555.632 216.295 556.185 215.884Q556.738 215.473 557.311 215.09Q557.883 214.707 558.474 214.353Q559.064 213.998 559.671 213.673Q560.279 213.347 560.901 213.052Q561.523 212.757 562.159 212.492Q562.795 212.227 563.443 211.994Q564.091 211.761 564.75 211.56Q565.408 211.358 566.076 211.189Q566.744 211.02 567.419 210.884Z"/>
	<path fill="#3A3029" d="M569.15 221.175C571.819 221.384 574.239 221.896 576.591 223.241C580.572 225.518 583.231 229.373 584.391 233.769C585.797 239.099 585.033 245.198 582.046 249.869C579.093 254.487 575.333 256.094 570.219 257.166C567.137 256.81 564.106 256.119 561.476 254.393C557.379 251.705 554.943 247.485 554.145 242.696C553.288 237.562 554.213 231.707 557.403 227.49C560.415 223.508 564.35 221.903 569.15 221.175Z"/>
	<path fill="#F9B267" d="M449.625 197.398Q450.639 197.25 451.659 197.152Q452.678 197.053 453.702 197.005Q454.725 196.957 455.75 196.959Q456.774 196.961 457.797 197.013Q458.82 197.065 459.84 197.167Q460.859 197.269 461.872 197.421Q462.886 197.573 463.89 197.775Q464.895 197.976 465.888 198.226Q466.882 198.476 467.862 198.775Q468.842 199.073 469.806 199.42Q470.77 199.766 471.716 200.159Q472.662 200.552 473.588 200.991Q474.514 201.429 475.417 201.913Q476.32 202.397 477.199 202.924Q478.077 203.451 478.929 204.021Q479.78 204.59 480.603 205.201Q481.426 205.811 482.217 206.462Q483.009 207.112 483.768 207.8Q484.527 208.488 485.252 209.212Q485.976 209.937 486.664 210.696Q487.352 211.455 488.002 212.247Q488.652 213.039 489.263 213.861Q489.874 214.684 490.443 215.536Q491.013 216.387 491.54 217.266Q492.067 218.144 492.551 219.047Q493.034 219.95 493.473 220.876Q493.912 221.802 494.305 222.748Q494.698 223.694 495.044 224.658Q495.39 225.623 495.689 226.603Q495.987 227.583 496.237 228.576Q496.488 229.57 496.689 230.574Q496.89 231.579 497.042 232.592Q497.194 233.605 497.296 234.625Q497.398 235.644 497.45 236.667Q497.502 237.69 497.504 238.715Q497.506 239.739 497.458 240.763Q497.41 241.786 497.311 242.806Q497.213 243.825 497.065 244.839Q496.917 245.853 496.72 246.858Q496.522 247.863 496.276 248.858Q496.029 249.852 495.734 250.833Q495.44 251.815 495.097 252.78Q494.755 253.746 494.365 254.693Q493.976 255.641 493.54 256.568Q493.105 257.496 492.625 258.401Q492.145 259.306 491.621 260.186Q491.097 261.067 490.531 261.92Q489.964 262.774 489.357 263.599Q488.75 264.424 488.102 265.218Q487.455 266.012 486.77 266.774Q486.085 267.536 485.363 268.263Q484.642 268.99 483.885 269.681Q483.129 270.372 482.339 271.025Q481.55 271.678 480.73 272.292Q479.909 272.906 479.06 273.478Q478.211 274.051 477.334 274.582Q476.458 275.112 475.557 275.599Q474.655 276.086 473.731 276.529Q472.807 276.971 471.862 277.367Q470.918 277.764 469.955 278.114Q468.992 278.464 468.013 278.766Q467.034 279.068 466.042 279.322Q465.049 279.576 464.045 279.781Q463.042 279.986 462.029 280.142Q461.012 280.298 459.988 280.405Q458.964 280.511 457.936 280.567Q456.908 280.622 455.878 280.628Q454.849 280.633 453.82 280.587Q452.792 280.542 451.767 280.446Q450.742 280.35 449.723 280.203Q448.704 280.057 447.693 279.861Q446.683 279.664 445.683 279.419Q444.683 279.173 443.697 278.878Q442.711 278.584 441.74 278.241Q440.769 277.898 439.817 277.508Q438.864 277.118 437.932 276.681Q436.999 276.245 436.09 275.763Q435.18 275.281 434.295 274.755Q433.41 274.229 432.552 273.66Q431.694 273.091 430.865 272.481Q430.036 271.87 429.238 271.22Q428.44 270.57 427.675 269.881Q426.91 269.192 426.18 268.466Q425.45 267.74 424.756 266.98Q424.063 266.219 423.407 265.425Q422.752 264.631 422.136 263.806Q421.521 262.981 420.947 262.126Q420.373 261.272 419.841 260.39Q419.31 259.509 418.822 258.602Q418.335 257.695 417.893 256.765Q417.45 255.836 417.054 254.886Q416.658 253.935 416.31 252.967Q415.961 251.998 415.66 251.014Q415.359 250.029 415.108 249.031Q414.856 248.033 414.653 247.023Q414.451 246.014 414.298 244.996Q414.145 243.978 414.043 242.954Q413.941 241.929 413.889 240.901Q413.837 239.873 413.836 238.843Q413.834 237.814 413.884 236.786Q413.933 235.757 414.033 234.733Q414.133 233.708 414.283 232.69Q414.433 231.671 414.634 230.661Q414.834 229.652 415.083 228.653Q415.333 227.654 415.631 226.669Q415.93 225.683 416.276 224.714Q416.622 223.745 417.016 222.793Q417.41 221.842 417.85 220.912Q418.29 219.981 418.775 219.073Q419.261 218.165 419.79 217.282Q420.319 216.399 420.891 215.543Q421.464 214.688 422.077 213.861Q422.691 213.034 423.344 212.239Q423.998 211.443 424.689 210.681Q425.381 209.918 426.11 209.191Q426.838 208.464 427.601 207.773Q428.365 207.082 429.161 206.43Q429.958 205.777 430.785 205.165Q431.613 204.553 432.469 203.982Q433.326 203.411 434.21 202.883Q435.093 202.355 436.002 201.871Q436.911 201.387 437.842 200.948Q438.773 200.509 439.725 200.117Q440.677 199.724 441.646 199.379Q442.616 199.034 443.602 198.737Q444.588 198.44 445.587 198.192Q446.586 197.944 447.596 197.745Q448.606 197.547 449.625 197.398Z"/>
	<path fill="#F7F0E9" d="M457.455 211.551Q458.158 211.518 458.861 211.519Q459.564 211.52 460.267 211.556Q460.969 211.592 461.669 211.662Q462.369 211.732 463.065 211.836Q463.761 211.941 464.45 212.079Q465.14 212.218 465.822 212.39Q466.504 212.562 467.177 212.767Q467.85 212.972 468.512 213.21Q469.173 213.448 469.823 213.718Q470.472 213.989 471.108 214.29Q471.743 214.592 472.363 214.925Q472.983 215.257 473.586 215.62Q474.189 215.982 474.773 216.374Q475.357 216.765 475.922 217.185Q476.486 217.605 477.029 218.052Q477.572 218.499 478.093 218.972Q478.614 219.445 479.11 219.943Q479.607 220.441 480.079 220.963Q480.551 221.485 480.996 222.029Q481.442 222.573 481.86 223.139Q482.278 223.704 482.669 224.29Q483.059 224.875 483.42 225.479Q483.781 226.082 484.112 226.703Q484.442 227.324 484.742 227.96Q485.043 228.596 485.311 229.246Q485.58 229.897 485.816 230.559Q486.052 231.222 486.256 231.895Q486.459 232.568 486.63 233.251Q486.8 233.933 486.937 234.623Q487.073 235.313 487.176 236.009Q487.278 236.705 487.347 237.405Q487.415 238.105 487.449 238.808Q487.483 239.511 487.482 240.214Q487.482 240.918 487.447 241.62Q487.412 242.323 487.342 243.023Q487.273 243.723 487.169 244.418Q487.066 245.114 486.928 245.804Q486.79 246.494 486.619 247.176Q486.448 247.858 486.243 248.531Q486.038 249.204 485.801 249.866Q485.564 250.529 485.294 251.178Q485.025 251.828 484.724 252.464Q484.422 253.1 484.091 253.72Q483.759 254.34 483.397 254.943Q483.035 255.547 482.644 256.131Q482.253 256.716 481.834 257.281Q481.414 257.846 480.968 258.389Q480.521 258.933 480.049 259.454Q479.576 259.975 479.079 260.472Q478.581 260.97 478.06 261.442Q477.539 261.914 476.995 262.36Q476.451 262.806 475.886 263.225Q475.321 263.644 474.736 264.035Q474.151 264.426 473.547 264.787Q472.944 265.149 472.324 265.48Q471.703 265.812 471.067 266.113Q470.431 266.413 469.782 266.682Q469.132 266.952 468.469 267.189Q467.807 267.426 467.134 267.63Q466.461 267.834 465.778 268.005Q465.096 268.176 464.406 268.313Q463.716 268.451 463.02 268.554Q462.325 268.657 461.625 268.726Q460.925 268.795 460.222 268.83Q459.519 268.865 458.814 268.865Q458.11 268.865 457.406 268.83Q456.703 268.796 456.002 268.727Q455.301 268.658 454.604 268.555Q453.908 268.451 453.217 268.314Q452.526 268.176 451.843 268.005Q451.16 267.834 450.486 267.63Q449.812 267.425 449.149 267.188Q448.485 266.951 447.835 266.681Q447.184 266.411 446.547 266.11Q445.911 265.809 445.29 265.477Q444.669 265.145 444.065 264.782Q443.461 264.42 442.875 264.029Q442.289 263.637 441.724 263.217Q441.158 262.798 440.614 262.351Q440.07 261.904 439.548 261.431Q439.026 260.957 438.528 260.459Q438.03 259.961 437.558 259.439Q437.085 258.917 436.638 258.372Q436.192 257.828 435.772 257.262Q435.353 256.696 434.962 256.11Q434.571 255.524 434.209 254.92Q433.848 254.316 433.516 253.694Q433.184 253.073 432.883 252.436Q432.583 251.799 432.313 251.148Q432.044 250.497 431.807 249.834Q431.571 249.171 431.367 248.497Q431.163 247.823 430.992 247.139Q430.821 246.456 430.684 245.765Q430.548 245.074 430.445 244.377Q430.342 243.681 430.273 242.98Q430.205 242.279 430.171 241.575Q430.137 240.872 430.138 240.167Q430.138 239.463 430.173 238.759Q430.209 238.056 430.278 237.355Q430.348 236.654 430.452 235.958Q430.556 235.261 430.694 234.57Q430.832 233.88 431.004 233.197Q431.176 232.514 431.381 231.84Q431.586 231.166 431.824 230.503Q432.062 229.84 432.332 229.19Q432.603 228.54 432.904 227.903Q433.206 227.267 433.539 226.646Q433.872 226.025 434.234 225.422Q434.597 224.818 434.989 224.233Q435.381 223.648 435.802 223.083Q436.222 222.517 436.669 221.974Q437.117 221.43 437.591 220.908Q438.064 220.387 438.563 219.89Q439.062 219.393 439.584 218.92Q440.107 218.448 440.652 218.002Q441.197 217.556 441.763 217.137Q442.329 216.718 442.916 216.328Q443.502 215.938 444.106 215.576Q444.711 215.215 445.333 214.884Q445.954 214.553 446.591 214.253Q447.229 213.953 447.88 213.684Q448.531 213.416 449.195 213.179Q449.858 212.943 450.532 212.74Q451.207 212.537 451.89 212.367Q452.574 212.197 453.265 212.06Q453.956 211.924 454.653 211.822Q455.349 211.72 456.05 211.652Q456.751 211.584 457.455 211.551Z"/>
	<path fill="#3A3029" d="M459.533 223.101C462.662 223.158 465.821 223.947 468.466 225.66C472.287 228.135 474.71 232.198 475.615 236.612C476.65 241.66 475.774 247.541 472.84 251.839C470.074 255.89 466.47 257.511 461.77 258.291C458.038 258.236 455.065 257.938 451.892 255.763C448.159 253.205 445.887 249.214 445.088 244.803C444.164 239.701 444.831 233.833 447.945 229.555C450.92 225.467 454.706 223.926 459.533 223.101Z"/>
	<path fill="#813C1D" d="M484.16 344.422Q482.09 342.427 480.272 340.2Q478.454 337.973 476.913 335.546C473.472 330.171 467.6 318.124 469.606 311.772C470.382 309.316 472.033 308.686 474.168 307.515C477.467 308.591 480.506 309.703 483.419 311.627C483.663 314.332 484.283 315.663 486.418 317.365C495.682 324.745 516.213 325.907 527.539 324.333C532.518 323.641 540.29 322.096 543.531 317.933C544.427 316.781 544.719 316.321 544.545 314.869C547.565 313.913 552.026 312.148 554.989 314.146C556.035 314.851 556.364 315.847 556.522 317.043C557.44 323.973 549.618 336.075 545.15 341.049C542.326 344.193 539.279 346.829 535.82 349.244C530.134 353.668 521.811 355.847 514.703 356.054C502.754 356.402 492.837 352.566 484.16 344.422Z"/>
	<path fill="#B75A27" d="M484.16 344.422C492.927 337.713 503.72 336.774 514.392 338.262C522.503 339.393 530.541 342.79 535.82 349.244C530.134 353.668 521.811 355.847 514.703 356.054C502.754 356.402 492.837 352.566 484.16 344.422Z"/>
	<path fill="#EA8F4B" d="M524.176 265.97C525.045 265.996 525.005 265.972 525.939 266.106C529.966 266.68 534.543 269.879 536.82 273.196C539.262 276.755 540.232 281.397 539.332 285.627C538.515 289.466 536.134 292.662 532.829 294.736C526.027 299.005 517.047 298.564 509.509 296.97C508.007 296.521 506.355 296.012 505.004 295.215C503.91 294.57 502.819 293.706 502.509 292.435C502.768 292.221 502.979 291.93 503.285 291.794C504.041 291.457 519.574 292.129 524.223 291.105C526.952 290.504 529.816 289.572 531.329 287.028C536.426 278.461 525.484 272.551 524.334 266.898C524.271 266.59 524.229 266.279 524.176 265.97Z"/>
	<path fill="#EA8F4B" d="M650.877 248.056C652.424 247.962 653.477 248.038 654.979 248.414C655.99 249.383 655.913 249.404 656.048 250.813C654.803 252.574 651.692 253.617 649.799 254.729C642.539 258.991 641.597 270.217 639.596 277.688C638.746 278.795 638.58 279.289 637.223 279.721L636.519 278.884C634.983 272.104 635.643 263.374 639.064 257.27C641.731 252.51 645.706 249.617 650.877 248.056Z"/>
	<path fill="#EA8F4B" d="M372.512 253.006C376.553 252.891 379.444 253.413 382.882 255.689C388.384 259.329 392.122 266.238 393.22 272.7C393.86 276.465 393.713 279.114 391.481 282.216L390.658 282.389C387.62 279.511 386.335 268.711 383.225 264.547C380.554 260.971 372.991 258.364 371.728 254.517L372.512 253.006Z"/>
	<path fill="#F9B267" d="M568.663 103.772C602.877 133.366 618.365 153.339 626.954 199.197C628.383 206.827 630.553 214.507 631.146 222.253L629.431 222.753C627.195 220.845 624.711 213.85 622.802 210.835C611.854 193.538 593.359 185.276 573.225 186.974C559.865 188.102 547.239 195.079 538.747 205.382C533.112 212.219 529.641 219.959 527.673 228.554C520.409 227.103 513.973 226.725 506.7 228.493C502.85 214.25 495.533 202.461 482.479 194.93C470.281 187.894 454.903 186.345 441.4 190.14C428.635 193.728 416.883 202.871 410.455 214.489C408.066 218.807 406.588 223.314 405.485 228.104C401.701 227.054 397.933 225.991 394.085 225.199C403.326 208.7 411.673 192.863 415.261 174.053C430.359 171.559 445.055 167.059 459.888 163.38C467.542 161.482 475.362 160.207 483.067 158.515C519.553 150.502 548.045 135.974 568.663 103.772Z"/>
	<path fill="#813C1D" d="M567.124 162.095C576.113 161.274 585.946 162.391 593.451 167.821C595.664 169.423 599.291 172.654 599.308 175.687C599.314 176.811 598.754 177.653 597.802 178.215C594.74 180.023 586.793 176.423 583.594 175.411C579.047 174.528 574.88 174.088 570.258 174.672C566.23 175.181 556.727 179.377 553.79 178.547C552.798 177.76 552.232 177.253 551.942 175.966C551.501 174.004 551.936 171.742 552.984 170.052C556.013 165.17 561.845 163.383 567.124 162.095Z"/>
	<path fill="#813C1D" d="M453.276 167.61C457.543 167.174 462.152 166.96 466.376 167.818C470.136 168.582 474.273 170.343 476.39 173.731C477.254 175.114 477.456 176.254 477.039 177.852C475.959 179.273 474.825 179.883 473.078 180.083C470.121 180.421 466.438 179.534 463.44 179.25C458.049 178.738 452.894 179.643 447.649 180.804C443.552 181.88 432.935 188.513 429.855 187.817C428.981 187.62 428.335 187.439 428.042 186.523C427.534 184.93 429.555 181.631 430.394 180.407C435.83 172.483 444.183 169.352 453.276 167.61Z"/>
	<path fill="#F9B267" d="M419.985 787.464C442.73 790.553 465.146 793.41 488.117 794.52C487.28 821.434 484.513 848.51 482.411 875.36C481.571 886.091 479.708 898.188 480.042 908.837L479.826 912.802C481.203 921.931 483.999 933.219 478.029 941.308C467.047 956.187 437.356 964.111 419.621 966.333C407.164 967.894 384.75 969.434 374.421 961.118C372.094 959.245 370.426 956.744 370.13 953.725C369.575 948.059 373.012 942.157 376.584 937.994C380.25 933.72 392.504 925.444 393.576 923.861L397.771 921.686C403.992 917.514 410.597 913.895 416.846 909.736C417.477 889.841 417.549 869.9 418.094 850C418.664 829.17 419.69 808.296 419.985 787.464Z"/>
	<path fill="#19AF8A" d="M479.826 912.802C481.203 921.931 483.999 933.219 478.029 941.308C467.047 956.187 437.356 964.111 419.621 966.333C407.164 967.894 384.75 969.434 374.421 961.118C372.094 959.245 370.426 956.744 370.13 953.725C369.575 948.059 373.012 942.157 376.584 937.994C380.25 933.72 392.504 925.444 393.576 923.861L397.771 921.686C397.269 922.991 396.654 924.475 396.543 925.874C396.398 927.704 397.251 929.813 398.516 931.118C402.276 934.999 410.948 935.598 416.088 935.676C438.799 936.02 463.313 928.771 479.826 912.802Z"/>
	<path fill="#F9B267" d="M541.755 814.107C551.19 812.518 561.297 812.773 570.865 811.799C583.726 810.49 596.192 808.033 608.92 805.956C609.027 823.284 609.742 840.588 609.947 857.91C610.14 874.167 609.806 890.605 611.047 906.82Q616.962 910.175 623.002 913.298C627.456 915.665 631.775 918.073 636.029 920.794Q641.016 923.753 645.909 926.864C649.533 929.719 653.153 932.697 656.348 936.033C660.546 940.416 664.604 946.113 664.265 952.467C664.096 955.632 662.517 958.292 660.082 960.262C650.704 967.848 632.208 966.705 620.843 965.521C602.205 963.579 560.696 956.551 548.998 941.345C543.667 934.416 544.462 925.058 545.731 917L546.663 912.03C545.667 902.103 545.755 891.761 545.178 881.78C543.875 859.27 542.407 836.643 541.755 814.107Z"/>
	<path fill="#19AF8A" d="M546.663 912.03C561.696 926.345 598.38 933.744 618.733 933.216C623.708 933.087 631.631 932.516 635.102 928.58C636.29 927.234 637.14 925.331 636.875 923.516C636.745 922.618 636.334 921.649 636.029 920.794Q641.016 923.753 645.909 926.864C649.533 929.719 653.153 932.697 656.348 936.033C660.546 940.416 664.604 946.113 664.265 952.467C664.096 955.632 662.517 958.292 660.082 960.262C650.704 967.848 632.208 966.705 620.843 965.521C602.205 963.579 560.696 956.551 548.998 941.345C543.667 934.416 544.462 925.058 545.731 917L546.663 912.03Z"/>
	<path fill="#F9B267" d="M281.727 343.294C279.071 332.387 268.594 307.515 271.581 297.835C272.148 295.999 273.266 294.365 275.031 293.513C277.081 292.523 279.35 292.55 281.428 293.429C284.236 294.617 286.413 297.025 288.178 299.435C294.981 308.727 305.715 335.012 310.341 346.542L310.646 346.706C313.86 343.693 316.564 338.291 319.013 334.54C322.128 329.354 325.5 325.581 331.469 323.764C335.023 324.603 338.54 325.538 340.524 328.931C342.512 332.33 341.71 336.787 340.623 340.352C339.2 345.019 336.807 349.776 336.066 354.587C334.444 368.159 334.969 382.101 329.611 394.927C320.755 408.531 306.88 419.745 290.839 423.241C283.543 424.832 276.902 424.001 269.883 421.573C265.388 417.42 260.651 413.782 256.407 409.304C248.328 400.779 241.461 390.979 234.209 381.744C230.63 377.185 225.864 372.322 223.16 367.244C221.651 364.411 220.624 360.782 221.771 357.637C222.374 355.987 223.543 354.578 225.261 354.017C228.121 353.083 231.771 354.481 234.336 355.722C236.003 356.298 237.678 356.955 239.381 357.408C235.132 350.047 224.844 342.666 225.741 333.39C225.934 331.389 226.84 329.542 228.416 328.272C230.422 326.656 233.188 326.148 235.69 326.584C244.735 328.16 253.01 341.736 257.942 348.857C254.887 340.007 244.158 319.642 245.672 311.318C246.098 308.975 247.393 306.416 249.506 305.182C251.242 304.168 253.233 304.13 255.135 304.649C265.83 307.566 275.939 333.544 281.727 343.294Z"/>
	<path fill="#EA8F4B" d="M310.341 346.542L310.646 346.706C309.516 356.361 298.723 362.835 296.331 372.428C294.917 378.103 296.518 382.792 296.068 388.292C295.982 389.353 296.002 389.591 295.2 390.324C293.011 389.56 291.03 386.289 290.036 384.287C287.624 379.429 288.712 372.891 290.517 367.974C293.188 360.698 300.385 351.24 307.484 348.072C308.323 347.698 309.06 347.391 309.842 346.893C310.013 346.783 310.175 346.659 310.341 346.542Z"/>
	<path fill="#EA8F4B" d="M234.336 355.722C236.003 356.298 237.678 356.955 239.381 357.408C245.1 362.466 249.823 369.829 253.988 376.217C247.037 369.698 241.066 362.4 234.336 355.722Z"/>
	<path fill="#F9B267" d="M704.36 649.351C706.465 654.713 708.011 660.222 709.228 665.85C712.68 685.311 712.52 700.255 706.152 719.209C704.631 723.736 703.036 728.717 700.255 732.653C698.95 734.5 697.064 736.577 694.761 737.081C693.932 737.262 692.931 737.204 692.082 737.202C690.588 736.403 689.981 735.62 689.05 734.221C687.578 738.133 686.191 742.61 682.113 744.563C680.997 745.097 679.728 745.372 678.531 745.664C677.613 745.323 676.68 745.003 675.788 744.596C672.286 742.996 671.338 739.427 670.169 736.084C669.862 728.937 668.773 719.329 670.951 712.569C671.034 709.174 670.841 705.796 670.674 702.406C669.187 705.236 667.791 707.981 665.756 710.466C663.291 713.651 661.2 715.223 657.203 715.974C655.505 715.323 653.928 714.695 652.632 713.373C645.028 705.621 651.156 674.325 651.047 663.154L651.034 662.262C651.442 660.16 651.377 657.922 651.444 655.783C669.559 657.449 687.613 657.305 704.36 649.351Z"/>
	<path fill="#EA8F4B" d="M689.05 734.221C691.06 727.411 693.132 720.679 694.352 713.669C695.294 708.255 696.246 688.057 698.105 684.589L698.884 684.469C701.666 689.469 697.837 717.47 696.233 723.168C694.946 727.737 692.188 732.433 692.082 737.202C690.588 736.403 689.981 735.62 689.05 734.221Z"/>
	<path fill="#EA8F4B" d="M665.756 710.466C668.175 702.842 669.04 691.2 672.525 684.853L673.167 684.674C675.133 687.183 674.56 691.748 674.204 694.755C673.788 698.277 672.814 710.113 670.951 712.569C671.034 709.174 670.841 705.796 670.674 702.406C669.187 705.236 667.791 707.981 665.756 710.466Z"/>
</svg>
